<svg id="Group_38" data-name="Group 38" xmlns="http://www.w3.org/2000/svg" xmlns:xlink="http://www.w3.org/1999/xlink" width="442.427" height="46.941" viewBox="0 0 442.427 46.941">
  <defs>
    <clipPath id="clip-path">
      <rect id="Rectangle_16" data-name="Rectangle 16" width="442.427" height="46.941" fill="none"/>
    </clipPath>
  </defs>
  <g id="Group_37" data-name="Group 37" clip-path="url(#clip-path)">
    <path id="Path_28" data-name="Path 28" d="M52.59,32.572c0,.734,0,1.4-.067,2.067a18.975,18.975,0,0,1-.4,2.066,10.059,10.059,0,0,1-1,1.866A9.317,9.317,0,0,1,50.057,40.3a14.58,14.58,0,0,1-1.4,1.533,10.269,10.269,0,0,1-1.6,1.267,19.479,19.479,0,0,1-1.733,1.2c-.6.267-1.267.4-1.933.666-.666.2-1.267.6-1.933.8-.666.133-1.333.133-2.067.267-.666.134-1.333.2-2.066.333-.666.067-1.333.334-2,.4s-1.4.066-2.133.066c-.667,0-1.334.067-2.067.067-1,0-1-.2-2.066-.2-1,0-1,.133-2,.133-1.067,0-1.067-.2-2.066-.2s-1,.2-2.066.2c-1,0-1-.133-2-.133-1.066,0-1.066.2-2.066.2H16.8c-1,0-1-.2-2-.2-1.066,0-1.066.133-2.066.133-1.066,0-1.066-.133-2.066-.133s-1,.133-2.066.133c-1,0-1,.067-2,.067-1.067,0-1.067-.267-2.066-.2-1.067,0-1.067.133-2.067.133a2.087,2.087,0,0,1-1.6-.8,2.261,2.261,0,0,1-.733-1.6c0-1-.067-1-.067-2.067s.2-1.066.2-2.066c0-1.066-.133-1.066-.133-2.133S.067,37.1.067,36.105C.067,35.038,0,35.038,0,33.972c0-1,.2-1,.2-2.066S.067,30.84.067,29.773c0-1,.133-1,.133-2.066S.067,26.64.067,25.64c0-1.066.067-1.066.067-2.133V21.441c0-1.066.066-1.066.066-2.133V17.242c0-1.066-.066-1.066-.066-2.133,0-1-.134-1-.134-2.066s.267-1.067.267-2.133c0-1-.267-1-.267-2.066S.267,7.777.267,6.777V4.644c0-1.066-.2-1.066-.2-2.133a2.2,2.2,0,0,1,.8-1.6,2.162,2.162,0,0,1,1.6-.6C3.532.312,3.532.178,4.6.178,5.733.178,5.733.112,6.8.112s1.067.2,2.133.2c1.133,0,1.133.067,2.2.067S12.2.112,13.264.112s1.066-.067,2.2-.067c1.066,0,1.066.333,2.133.333S18.663.112,19.8.112h4.333c.666,0,1.333.133,2,.2a19.368,19.368,0,0,1,2,.067c.734.067,1.4.067,2.067.133s1.333.333,2,.467,1.333.333,1.933.466c.667.2,1.267.467,1.933.733.6.2,1.333.334,1.933.6.6.333,1.2.666,1.733,1a15.062,15.062,0,0,1,1.733,1.066,9.994,9.994,0,0,1,1.533,1.333,9.787,9.787,0,0,1,1.467,1.4,12.273,12.273,0,0,1,1.133,1.666c.333.6.466,1.333.733,1.933a9.118,9.118,0,0,1,.467,1.933,9.984,9.984,0,0,1,.4,1.933,16.229,16.229,0,0,1-.067,1.8c-.133.533-.333,1.066-.533,1.666a16.1,16.1,0,0,1-.734,1.533,2.582,2.582,0,0,0-.066,1.733,2.058,2.058,0,0,0,1,1.267c.6.4,1.066.8,1.6,1.2.467.4.867.933,1.333,1.4a12.657,12.657,0,0,1,1.267,1.4,10.543,10.543,0,0,1,.867,1.733,9.081,9.081,0,0,1,.4,1.933,15.635,15.635,0,0,1,.333,1.866m-11.2,0a2.1,2.1,0,0,0-1.133-1.732,9.971,9.971,0,0,0-2-.667,17.859,17.859,0,0,0-2.133-.333c-.666-.067-1.333-.4-2.066-.467s-1.4.133-2.2.133a17.943,17.943,0,0,0-2.132-.333c-.667-.067-1.4-.067-2.133-.067-.666,0-1.4.133-2.133.133-1,0-1-.066-2-.066s-1-.067-2.066-.067c-1,0-1,.133-2,.133s-1,.067-2.066.067c-1,0-1-.133-2-.133s-1-.133-2.066-.133a2.493,2.493,0,0,0-1.533.933,2.225,2.225,0,0,0-.6,1.533c0,1.066-.334,1.066-.334,2.133a2.492,2.492,0,0,0,.933,1.533,2.379,2.379,0,0,0,1.533.734c1.066,0,1.066.066,2.066.066H17.4c1,0,1-.133,2-.133,1.066,0,1.066.2,2.066.2s1-.067,2.066-.067c1,0,1-.133,2.066-.133.667,0,1.4,0,2.067-.066.733,0,1.466.2,2.133.133.733,0,1.467-.133,2.133-.133.733-.067,1.466-.067,2.133-.133a19.086,19.086,0,0,0,2.066-.333c.734-.133,1.467-.2,2.067-.333a9.786,9.786,0,0,0,2-.733,2.093,2.093,0,0,0,1.2-1.667m-30.461-19.2v2.666a2.557,2.557,0,0,0,.733,1.666,2.223,2.223,0,0,0,1.6.533c1.133,0,1.133.267,2.2.267s1.066-.267,2.133-.267,1.066.267,2.2.267h2.133c1.066,0,1.066-.2,2.2-.2a18.7,18.7,0,0,0,1.933.066c.667,0,1.333.067,1.933.067.667-.067,1.266-.267,1.866-.333a14.5,14.5,0,0,0,1.933-.334,12.476,12.476,0,0,0,1.867-.267,5.438,5.438,0,0,0,1.866-.733,2.131,2.131,0,0,0,.8-1.733,2.26,2.26,0,0,0-.667-1.8,4,4,0,0,0-1.666-1.066c-.533-.2-1.2-.267-1.933-.467a13.78,13.78,0,0,0-1.933-.467c-.6-.067-1.333,0-2-.067s-1.333,0-2,0h-2c-1.134,0-1.134-.133-2.2-.133s-1.066.067-2.133.067-1.066-.067-2.2-.067c-1.067,0-1.067.067-2.133.067s-1.066-.067-2.2-.067a2.329,2.329,0,0,0-1.6.666,2.557,2.557,0,0,0-.733,1.666" transform="translate(0 -0.029)" fill="#f0eeed"/>
    <path id="Path_29" data-name="Path 29" d="M194.676,42.488c0,1.067.067,1.067.067,2.066a2.471,2.471,0,0,1-.8,1.6,2.4,2.4,0,0,1-1.6.733c-1,0-1-.066-2.066-.066s-1.066.066-2.066.066c-1.066,0-1.066.067-2.133.067h-4.2c-1,0-1-.067-2.067-.067s-1.066.133-2.066.133c-1.066,0-1.066-.2-2.133-.2-1,0-1-.067-2.067-.067s-1.066.133-2.066.133h-2.133c-1.067,0-1.067-.066-2.067-.066h-2.133c-1,0-1,.133-2.066.133a2.829,2.829,0,0,1-2.4-2.4c0-1,.134-1,.134-2.066s-.067-1.066-.067-2.066c0-1.067.067-1.067.067-2.133s-.067-1.067-.067-2.066V34.09c0-1-.067-1-.067-2.066V29.89c0-1,.134-1,.134-2.066s-.2-1.066-.2-2.066V23.625c0-1.066.2-1.066.2-2.066,0-1.066-.134-1.066-.134-2.133,0-1-.066-1-.066-2.067v-4.2c0-1.067.2-1.067.2-2.133,0-1-.134-1-.134-2.066V6.895c0-1.067.2-1.067.2-2.133s-.266-1.066-.266-2.133a2.469,2.469,0,0,1,.8-1.6,2.115,2.115,0,0,1,1.666-.666c1,0,1-.133,2.066-.133,1,0,1,.2,2.066.2,1,0,1-.2,2.066-.2a2.54,2.54,0,0,1,1.733.734,2.437,2.437,0,0,1,.6,1.666c0,1.066.066,1.066.066,2.133V6.828c0,1-.2,1-.2,2.067,0,1,.066,1,.066,2.066,0,1,.067,1,.067,2.066,0,1-.067,1-.067,2.066,0,1-.066,1-.066,2.067,0,1,.2,1,.2,2.066s-.2,1.066-.2,2.066c0,1.066.133,1.066.133,2.066,0,1.066-.133,1.066-.133,2.066,0,1.067.133,1.067.133,2.066,0,1.066-.067,1.066-.067,2.066,0,1.066.134,1.066.134,2.133,0,1-.2,1-.2,2.066a2.471,2.471,0,0,0,.8,1.6,2.129,2.129,0,0,0,1.6.733c1.067,0,1.067.133,2.066.133s1-.133,2.066-.133h2.066c1,0,1-.133,2-.133,1.066,0,1.066.133,2.067.133s1,.066,2.066.066c1,0,1-.2,2.067-.2,1,0,1,.133,2,.133,1.066,0,1.066.066,2.066.066a2.165,2.165,0,0,1,2.266,2.2c0,1.066.067,1.066.067,2.066Z" transform="translate(-102.694 -0.146)" fill="#f0eeed"/>
    <path id="Path_30" data-name="Path 30" d="M326.2,44.669a1.692,1.692,0,0,1-.133,1.533,1.515,1.515,0,0,1-1.333.734h-3.666c-.933,0-.933.067-1.866.067s-.933-.267-1.8-.267a3.268,3.268,0,0,1-1.867-.6c-.6-.4-1.333-.733-1.6-1.267a17.3,17.3,0,0,1-.667-1.666,16.952,16.952,0,0,1-.8-1.533c-.4-.8-.133-.866-.533-1.666a3.92,3.92,0,0,0-1.533-1.4,4.018,4.018,0,0,0-1.933-.533c-.933,0-.933-.2-1.866-.2s-.933.133-1.867.133-.933-.067-1.866-.067-.933-.066-1.867-.066H299.14c-.933,0-.933-.067-1.866-.067s-.933.133-1.867.133h-3.733c-.933,0-.933.2-1.866.2h-1.867a3.494,3.494,0,0,0-2,.4,3.677,3.677,0,0,0-1.4,1.466,17.066,17.066,0,0,0-.733,1.6,16.269,16.269,0,0,0-.667,1.6c-.4.8-.467.8-.8,1.6a5.057,5.057,0,0,1-1.4,1.533,3.689,3.689,0,0,1-2,.6c-.867,0-.867-.067-1.8-.067s-.933.133-1.866.133-.933-.067-1.867-.067-.933-.133-1.8-.133c-.666,0-1.267-.133-1.467-.466a1.607,1.607,0,0,1,.133-1.533c.4-.867.533-.8.933-1.667l.8-1.733c.4-.867.333-.867.733-1.733s.267-.933.666-1.733c.4-.866.6-.8,1-1.666l.8-1.666c.4-.866.266-.933.666-1.8s.467-.8.933-1.666c.4-.8.533-.733,1-1.6.4-.867.333-.867.733-1.733.4-.8.467-.8.867-1.666s.4-.8.867-1.666c.4-.867.267-.933.666-1.733.467-.867.533-.8.933-1.666.466-.867.466-.8.867-1.666s.2-.933.6-1.8c.467-.866.4-.866.8-1.733s.666-.733,1.066-1.533l.8-1.733c.4-.866.333-.866.734-1.733s.267-.933.666-1.8c.4-.8.667-.666,1.066-1.533s.2-.933.6-1.8l.933-1.666c.4-.866.466-.8.867-1.666A3.3,3.3,0,0,1,292.207.877a3.536,3.536,0,0,1,1.133-.533,4.01,4.01,0,0,1,1.4-.133c.534,0,.734.067,1.533.067,1.066,0,1.066-.067,2.066-.067h4.2c.133,0,.466-.066.666.133a4.241,4.241,0,0,1,1.2.666,3.155,3.155,0,0,1,1.333,1.466l.8,1.8c.467.867.6.8,1,1.666.467.866.533.866,1,1.733.4.867.334.933.733,1.8s.334.933.8,1.8c.4.867.533.8.933,1.666.4.933.334.933.733,1.866.467.867.6.8,1,1.666l.8,1.8a14.72,14.72,0,0,1,.8,1.8c.4.867.267.933.666,1.8a14.989,14.989,0,0,0,.867,1.8l.8,1.732c.467.933.4.933.866,1.8.4.866.467.8.933,1.733.4.867.467.867.867,1.733s.466.867.867,1.733.467.867.866,1.733c.467.933.467.867.867,1.733.466.933.4.933.8,1.8a14.328,14.328,0,0,0,.933,1.733c.4.933.4.867.867,1.8.4.867.333.867.8,1.733a14.021,14.021,0,0,0,.867,1.733M304.738,25.006c-.4-.933-.533-.933-1-1.867-.4-.933-.333-.933-.734-1.866-.466-.933-.4-1-.866-1.933s-.667-.8-1.133-1.733c-.4-.933-.466-.933-.933-1.866-.4-.933-.133-1-.6-1.933a1.163,1.163,0,0,0-2.266,0c-.467.933-.4.933-.866,1.867-.4.933-.267,1.066-.733,2-.4.933-.667.8-1.133,1.733s-.266,1-.733,1.933c-.4.933-.466.933-.933,1.867s-.533.866-.933,1.8a1.164,1.164,0,0,0,.133,1.4,1.227,1.227,0,0,0,1.2.733h2c1,0,1-.2,2.067-.2,1,0,1,.133,2,.133s1,.2,2,.2c1.067,0,1.067-.066,2.066-.066a1.514,1.514,0,0,0,1.4-.667,1.558,1.558,0,0,0,0-1.533" transform="translate(-172.631 -0.128)" fill="#f0eeed"/>
    <path id="Path_31" data-name="Path 31" d="M469.61,40.556a2.57,2.57,0,0,1,.133,1.866,2.385,2.385,0,0,1-1.333,1.2c-.667.267-1.333.6-2,.866-.667.2-1.4.334-2.067.6-.733.2-1.4.4-2.133.533-.666.2-1.4.267-2.066.4-.733.133-1.4.4-2.133.466-.733.133-1.467.133-2.2.2-.666.066-1.4.066-2.133.133-.733,0-1.4.067-2.133.067-.666,0-1.333-.134-2-.134-.733,0-1.4.2-2.066.134s-1.333-.333-2-.467c-.667-.067-1.333,0-2-.133s-1.333-.334-2-.467-1.267-.467-1.866-.6c-.666-.2-1.4-.267-2-.466a15.819,15.819,0,0,1-1.867-.8c-.6-.2-1.266-.4-1.866-.666a15.618,15.618,0,0,1-1.8-1,14.328,14.328,0,0,1-1.733-.933c-.6-.333-1.267-.6-1.8-.933l-1.667-1.2c-.467-.466-.866-1-1.333-1.466a14.867,14.867,0,0,1-1.466-1.4c-.467-.533-1.066-.933-1.467-1.4-.4-.6-.666-1.2-1-1.8s-.733-1.133-1-1.733c-.333-.6-.533-1.267-.8-1.866-.2-.667-.467-1.267-.6-1.933a10.433,10.433,0,0,1-.333-2c-.067-.666-.067-1.333-.067-2s.133-1.333.2-2,.2-1.333.333-2,.2-1.333.4-2c.266-.6.666-1.133.933-1.8.334-.6.467-1.267.8-1.8.4-.6.733-1.2,1.133-1.733s1-.933,1.4-1.467c.466-.467.933-.933,1.466-1.4.467-.467.933-.933,1.466-1.4.533-.4,1.133-.667,1.733-1.066A14.05,14.05,0,0,1,430.35,5.9c.6-.334,1.066-.867,1.666-1.133.6-.333,1.267-.467,1.867-.733s1.2-.666,1.8-.933c.667-.267,1.267-.466,1.933-.666.6-.2,1.267-.333,1.933-.533.666-.133,1.333-.2,2-.334.666-.2,1.266-.533,1.933-.666s1.333-.067,2-.2l2-.2c.666-.067,1.333-.133,2-.133.666-.067,1.4,0,2.066,0,.733,0,1.4-.133,2.133-.133.733.066,1.467.2,2.2.267.666.067,1.4.067,2.133.133.733.133,1.4.333,2.133.467s1.4.333,2.066.466l2.066.6c.733.267,1.4.533,2.066.733.667.267,1.4.4,2.067.666a1.834,1.834,0,0,1,1,1.333,2.23,2.23,0,0,1,0,1.733c-.466.866-.267,1-.733,1.933l-.933,1.8c-.467.933-.666.867-1.066,1.8a2.6,2.6,0,0,1-1.333,1.2,2.983,2.983,0,0,1-1.866.067,15.574,15.574,0,0,0-1.867-.733l-2-.6c-.666-.133-1.266-.333-1.933-.467s-1.4-.066-2.066-.133-1.334-.267-2.067-.333c-.666-.067-1.333.067-2,.067-.733,0-1.4.066-2.133.133a10.833,10.833,0,0,0-2.066.2,19.382,19.382,0,0,0-2.067.267c-.733.133-1.4.334-2.066.467-.667.2-1.333.4-2,.666a18.964,18.964,0,0,0-2.066.4c-.666.267-1.267.666-1.933.933-.6.333-1.2.8-1.733,1.133a19.579,19.579,0,0,0-1.733,1.2,19.5,19.5,0,0,0-1.733,1.266,10.217,10.217,0,0,0-1.133,1.8,7,7,0,0,0-.933,1.866,5.436,5.436,0,0,0-.4,2.066,6.83,6.83,0,0,0,.533,2,9.629,9.629,0,0,0,.733,1.933,10.484,10.484,0,0,0,1.266,1.733,9.981,9.981,0,0,0,1.6,1.333,9.975,9.975,0,0,0,1.666,1.267,16.932,16.932,0,0,0,1.866,1.066l1.933.8c.667.267,1.333.533,2,.734a11.547,11.547,0,0,0,2.066.466c.666.2,1.333.4,2,.533.733.133,1.466.067,2.133.133.666.133,1.4.467,2.066.533.733,0,1.4-.133,2.133-.133.667,0,1.333-.067,2-.067l2.067-.2c.666-.133,1.333-.133,2-.267l2-.4c.667-.2,1.4-.133,2.067-.333s1.2-.6,1.866-.867a2.413,2.413,0,0,1,1.8-.067,2.6,2.6,0,0,1,1.267,1.267c.467.933.467.933.867,1.866.467.933.666.867,1.133,1.733.466.933.533.933,1,1.867" transform="translate(-267.782 -0.147)" fill="#f0eeed"/>
    <path id="Path_32" data-name="Path 32" d="M623.175,45.288c.866.933.666,1.733-.667,1.733-1,0-1-.2-2.066-.2-1,0-1,.133-2.066.133h-2c-1.067,0-1.067-.066-2.066-.066-1.066,0-1.066.066-2.066.066a5.447,5.447,0,0,1-2.133-.6,6.909,6.909,0,0,1-1.8-1.133c-.733-.8-.733-.8-1.466-1.533-.733-.8-.733-.8-1.467-1.533l-1.466-1.6c-.733-.8-.667-.8-1.4-1.6s-.866-.733-1.6-1.466c-.734-.8-.667-.8-1.4-1.533-.733-.8-.8-.733-1.533-1.533-.8-.733-.666-.866-1.4-1.6-.733-.8-.8-.734-1.533-1.467l-1.466-1.6a2.13,2.13,0,0,0-1.6-.734,2.073,2.073,0,0,0-1.666.666c-.6.534-.6.534-1.2,1.133-.6.533-.6.533-1.2,1.133a4.988,4.988,0,0,0-1.2,1.733,4.666,4.666,0,0,0-.466,2.066c0,1.133-.133,1.133-.133,2.2v2.266c0,1.067.133,1.067.133,2.2s-.2,1.133-.2,2.2a2.161,2.161,0,0,1-.6,1.6,2.1,2.1,0,0,1-1.6.6c-1.066,0-1.066.133-2.066.133-1.067,0-1.067.067-2.067.067-1.066,0-1.066.066-2.066.066a2.731,2.731,0,0,1-1.733-.733,2.587,2.587,0,0,1-.733-1.733V42.556c0-1.067.067-1.067.067-2.133v-4.2c0-1.067-.067-1.067-.067-2.066,0-1.066.133-1.066.133-2.133s.067-1.066.067-2.066V27.825c0-1.066.066-1.066.066-2.066,0-1.066-.2-1.066-.2-2.133s.133-1.066.133-2.066c0-1.066.066-1.066.066-2.133s-.133-1.067-.133-2.066c0-1.066.133-1.066.133-2.133,0-1-.066-1-.066-2.066V11.028c0-1-.2-1-.2-2.066s.266-1.066.266-2.133c0-1-.133-1-.133-2.066s.133-1.066.133-2.066a2.067,2.067,0,0,1,.667-1.6A2.055,2.055,0,0,1,577.65.43c1,0,1-.133,2.066-.133,1,0,1-.066,2.067-.066,1,0,1,.133,2.066.133a2.437,2.437,0,0,1,1.666.6,2.728,2.728,0,0,1,.733,1.733c0,.933-.133.933-.133,1.933s.133,1,.133,2c0,.933-.2.933-.2,1.933s-.067,1-.067,2v1.933c0,1,.067,1,.067,2s.133,1,.133,1.933c0,1.266.667,1.6,1.6.733l1.533-1.4c.8-.667.867-.6,1.666-1.333.733-.667.666-.733,1.466-1.4l1.466-1.466c.734-.666.867-.533,1.6-1.267.8-.666.667-.8,1.4-1.533a15.3,15.3,0,0,0,1.533-1.4c.733-.666.8-.666,1.533-1.333.8-.733.8-.666,1.6-1.333.733-.733.8-.666,1.533-1.333.8-.733.733-.733,1.533-1.4A5.143,5.143,0,0,1,606.445.7a5.326,5.326,0,0,1,2.2-.4h1.933c.933,0,.933.133,1.867.133S613.377.3,614.377.3c.933,0,.933.133,1.866.133h1.933c.933,0,.933-.066,1.866-.066,1.267,0,1.533.666.6,1.533-.8.733-.667.8-1.467,1.533l-1.6,1.466c-.8.666-.867.666-1.666,1.4-.734.667-.867.6-1.667,1.333-.733.733-.8.666-1.6,1.4-.733.733-.667.8-1.467,1.533s-.666.8-1.466,1.533-.866.667-1.666,1.4-.733.8-1.533,1.466c-.733.734-.8.666-1.6,1.4s-.933.6-1.666,1.333c-.8.734-.666.933-1.466,1.6a2.378,2.378,0,0,0-.933,1.533,2.136,2.136,0,0,0,.733,1.666c.733.733.666.8,1.4,1.533.733.8.733.733,1.466,1.533.734.733.8.667,1.533,1.4.734.8.734.733,1.467,1.533.733.733.6.866,1.333,1.6.733.8.733.734,1.467,1.533a15.336,15.336,0,0,1,1.4,1.533l1.467,1.467c.733.733.733.733,1.466,1.533l1.467,1.466c.666.8.8.667,1.533,1.467.733.733.6.866,1.333,1.6.666.8.866.667,1.533,1.4.733.733.733.8,1.466,1.533.666.733.533.933,1.267,1.666" transform="translate(-367.758 -0.147)" fill="#f0eeed"/>
    <path id="Path_33" data-name="Path 33" d="M775.316,40.556a2.57,2.57,0,0,1,.133,1.866,2.384,2.384,0,0,1-1.333,1.2c-.667.267-1.333.6-2,.866-.667.2-1.4.334-2.066.6-.733.2-1.4.4-2.133.533-.666.2-1.4.267-2.066.4-.733.133-1.4.4-2.133.466-.733.133-1.467.133-2.2.2-.667.066-1.4.066-2.133.133-.733,0-1.4.067-2.133.067-.667,0-1.333-.134-2-.134-.733,0-1.4.2-2.066.134s-1.334-.333-2-.467c-.667-.067-1.333,0-2-.133s-1.333-.334-2-.467-1.267-.467-1.867-.6c-.666-.2-1.4-.267-2-.466a15.818,15.818,0,0,1-1.866-.8c-.6-.2-1.266-.4-1.866-.666a15.672,15.672,0,0,1-1.8-1,14.349,14.349,0,0,1-1.733-.933c-.6-.333-1.266-.6-1.8-.933l-1.666-1.2c-.467-.466-.867-1-1.333-1.466a14.9,14.9,0,0,1-1.466-1.4c-.466-.533-1.066-.933-1.466-1.4-.4-.6-.666-1.2-1-1.8s-.733-1.133-1-1.733c-.333-.6-.533-1.267-.8-1.866-.2-.667-.466-1.267-.6-1.933a10.409,10.409,0,0,1-.333-2,19.935,19.935,0,0,1-.067-2c0-.666.133-1.333.2-2s.2-1.333.334-2,.2-1.333.4-2c.267-.6.667-1.133.933-1.8.333-.6.467-1.267.8-1.8.4-.6.733-1.2,1.133-1.733s1-.933,1.4-1.467c.467-.467.933-.933,1.467-1.4.467-.467.933-.933,1.466-1.4.533-.4,1.133-.667,1.733-1.066A14.083,14.083,0,0,1,736.056,5.9c.6-.334,1.067-.867,1.666-1.133.6-.333,1.267-.467,1.866-.733s1.2-.666,1.8-.933c.666-.267,1.267-.466,1.933-.666.6-.2,1.267-.333,1.933-.533.666-.133,1.333-.2,2-.334.667-.2,1.266-.533,1.933-.666s1.333-.067,2-.2l2-.2c.666-.067,1.333-.133,2-.133.666-.067,1.4,0,2.066,0,.733,0,1.4-.133,2.133-.133.733.066,1.467.2,2.2.267.667.067,1.4.067,2.133.133.733.133,1.4.333,2.133.467s1.4.333,2.066.466l2.067.6c.733.267,1.4.533,2.066.733.666.267,1.4.4,2.066.666a1.835,1.835,0,0,1,1,1.333,2.232,2.232,0,0,1,0,1.733c-.467.866-.267,1-.733,1.933l-.933,1.8c-.467.933-.666.867-1.066,1.8a2.6,2.6,0,0,1-1.333,1.2,2.984,2.984,0,0,1-1.867.067,15.545,15.545,0,0,0-1.866-.733l-2-.6c-.666-.133-1.266-.333-1.933-.467s-1.4-.066-2.066-.133-1.333-.267-2.066-.333c-.667-.067-1.333.067-2,.067-.733,0-1.4.066-2.133.133a10.838,10.838,0,0,0-2.066.2,19.362,19.362,0,0,0-2.066.267c-.733.133-1.4.334-2.066.467-.667.2-1.334.4-2,.666a18.987,18.987,0,0,0-2.067.4c-.666.267-1.266.666-1.933.933-.6.333-1.2.8-1.733,1.133a19.481,19.481,0,0,0-1.733,1.2,19.454,19.454,0,0,0-1.733,1.266,10.224,10.224,0,0,0-1.133,1.8,7.011,7.011,0,0,0-.933,1.866,5.435,5.435,0,0,0-.4,2.066,6.818,6.818,0,0,0,.533,2,9.619,9.619,0,0,0,.733,1.933,10.5,10.5,0,0,0,1.266,1.733,9.967,9.967,0,0,0,1.6,1.333,9.986,9.986,0,0,0,1.666,1.267,16.934,16.934,0,0,0,1.867,1.066l1.933.8c.667.267,1.333.533,2,.734a11.551,11.551,0,0,0,2.067.466c.666.2,1.333.4,2,.533.733.133,1.466.067,2.133.133.666.133,1.4.467,2.066.533.733,0,1.4-.133,2.133-.133.666,0,1.333-.067,2-.067l2.066-.2c.666-.133,1.333-.133,2-.267l2-.4c.667-.2,1.4-.133,2.066-.333s1.2-.6,1.867-.867a2.413,2.413,0,0,1,1.8-.067,2.6,2.6,0,0,1,1.267,1.267c.467.933.467.933.866,1.866.467.933.667.867,1.133,1.733.466.933.533.933,1,1.867" transform="translate(-463.242 -0.147)" fill="#f0eeed"/>
    <path id="Path_34" data-name="Path 34" d="M937.058,44.669a1.694,1.694,0,0,1-.133,1.533,1.516,1.516,0,0,1-1.334.734h-3.666c-.933,0-.933.067-1.866.067s-.932-.267-1.8-.267a3.268,3.268,0,0,1-1.866-.6c-.6-.4-1.333-.733-1.6-1.267a17.232,17.232,0,0,1-.667-1.666,16.86,16.86,0,0,1-.8-1.533c-.4-.8-.133-.866-.533-1.666a3.919,3.919,0,0,0-1.533-1.4,4.014,4.014,0,0,0-1.933-.533c-.933,0-.933-.2-1.866-.2S916.529,38,915.6,38s-.933-.067-1.867-.067-.933-.066-1.866-.066H910c-.933,0-.933-.067-1.867-.067s-.933.133-1.866.133h-3.733c-.933,0-.933.2-1.866.2H898.8a3.491,3.491,0,0,0-2,.4A3.679,3.679,0,0,0,895.4,40a17.433,17.433,0,0,0-.733,1.6A16.262,16.262,0,0,0,894,43.2c-.4.8-.467.8-.8,1.6a5.069,5.069,0,0,1-1.4,1.533,3.691,3.691,0,0,1-2,.6c-.866,0-.866-.067-1.8-.067s-.933.133-1.866.133-.933-.067-1.867-.067-.933-.133-1.8-.133c-.667,0-1.266-.133-1.466-.466a1.608,1.608,0,0,1,.133-1.533c.4-.867.534-.8.933-1.667l.8-1.733c.4-.867.333-.867.733-1.733s.267-.933.667-1.733c.4-.866.6-.8,1-1.666l.8-1.666c.4-.866.266-.933.667-1.8s.467-.8.933-1.666c.4-.8.533-.733,1-1.6.4-.867.334-.867.733-1.733.4-.8.467-.8.867-1.666s.4-.8.867-1.666c.4-.867.266-.933.667-1.733.467-.867.533-.8.933-1.666.466-.867.466-.8.867-1.666s.2-.933.6-1.8c.466-.866.4-.866.8-1.733s.666-.733,1.066-1.533l.8-1.733c.4-.866.333-.866.733-1.733s.267-.933.667-1.8c.4-.8.667-.666,1.067-1.533s.2-.933.6-1.8l.934-1.666c.4-.866.467-.8.867-1.666A3.3,3.3,0,0,1,903.065.877,3.532,3.532,0,0,1,904.2.344,4.01,4.01,0,0,1,905.6.21c.533,0,.733.067,1.533.067C908.2.277,908.2.21,909.2.21h4.2c.134,0,.467-.066.667.133a4.239,4.239,0,0,1,1.2.666A3.154,3.154,0,0,1,916.6,2.476l.8,1.8c.467.867.6.8,1,1.666.467.866.533.866,1,1.733.4.867.334.933.734,1.8s.333.933.8,1.8c.4.867.533.8.933,1.666.4.933.333.933.733,1.866.467.867.6.8,1,1.666l.8,1.8a14.664,14.664,0,0,1,.8,1.8c.4.867.266.933.667,1.8a14.862,14.862,0,0,0,.866,1.8l.8,1.732c.467.933.4.933.867,1.8.4.866.466.8.933,1.733.4.867.467.867.867,1.733s.467.867.866,1.733.467.867.867,1.733c.467.933.467.867.867,1.733.466.933.4.933.8,1.8a14.324,14.324,0,0,0,.933,1.733c.4.933.4.867.867,1.8.4.867.333.867.8,1.733a13.969,13.969,0,0,0,.867,1.733M915.6,25.006c-.4-.933-.533-.933-1-1.867-.4-.933-.333-.933-.734-1.866-.467-.933-.4-1-.867-1.933s-.666-.8-1.133-1.733c-.4-.933-.467-.933-.933-1.866-.4-.933-.133-1-.6-1.933a1.163,1.163,0,0,0-2.266,0c-.467.933-.4.933-.866,1.867-.4.933-.267,1.066-.733,2-.4.933-.667.8-1.133,1.733s-.266,1-.733,1.933c-.4.933-.467.933-.933,1.867s-.533.866-.933,1.8a1.164,1.164,0,0,0,.133,1.4,1.228,1.228,0,0,0,1.2.733h2c1,0,1-.2,2.066-.2,1,0,1,.133,2,.133s1,.2,2,.2c1.066,0,1.066-.066,2.066-.066a1.515,1.515,0,0,0,1.4-.667,1.559,1.559,0,0,0,0-1.533" transform="translate(-563.197 -0.128)" fill="#f0eeed"/>
    <path id="Path_35" data-name="Path 35" d="M1075.534,2.63c0,1.066.067,1.066.067,2.066V6.762c0,1.066-.067,1.066-.067,2.066a2.367,2.367,0,0,1-.667,1.667,2.629,2.629,0,0,1-1.666.8h-2.133c-1.066,0-1.066-.133-2.133-.133s-1.066.133-2.066.133c-1.067,0-1.067-.066-2.133-.066H1062.6c-1.067,0-1.067.066-2.133.066a2.389,2.389,0,0,0-1.6.6,2.208,2.208,0,0,0-.667,1.6c0,1.066.067,1.066.067,2.066,0,1.066-.067,1.066-.067,2.066,0,1.067-.066,1.067-.066,2.133,0,1,.133,1,.133,2.066v2.066c0,1.067-.067,1.067-.067,2.066v4.132c0,1.066-.066,1.066-.066,2.133,0,1-.067,1-.067,2.066v2.066c0,1.066.133,1.066.133,2.066v2.066c0,1.067-.133,1.067-.133,2.067,0,1.066.067,1.066.067,2.133a2.276,2.276,0,0,1-2.266,2.266c-1.066,0-1.066.133-2.066.133-1.067,0-1.067-.066-2.066-.066-1.066,0-1.066.066-2.066.066a2.246,2.246,0,0,1-1.533-.867,1.991,1.991,0,0,1-.733-1.533V42.556c0-1-.133-1-.133-2.067s.2-1.066.2-2.066c0-1.066-.133-1.066-.133-2.066,0-1.066-.066-1.066-.066-2.133,0-1,.133-1,.133-2.066,0-1,.067-1,.067-2.066,0-1-.267-1-.267-2.066s.133-1.066.133-2.066c0-1.067.067-1.067.067-2.066,0-1.066-.133-1.066-.133-2.133,0-1,.066-1,.066-2.066V17.627c0-1-.133-1-.133-2.066s.267-1.066.267-2.066a2.225,2.225,0,0,0-.8-1.666,2.072,2.072,0,0,0-1.667-.6c-1.066,0-1.066-.2-2.133-.2h-2.2c-1.066,0-1.066.2-2.133.2s-1.067.066-2.133.066-1.066-.066-2.2-.066c-1.066,0-1.066.066-2.133.066a2.8,2.8,0,0,1-1.666-.8,2.29,2.29,0,0,1-.533-1.667c0-1-.133-1-.133-2.066,0-1-.067-1-.067-2.066,0-1,.133-1,.133-2.066a2.068,2.068,0,0,1,.667-1.6,2.469,2.469,0,0,1,1.6-.8c1.066,0,1.066.133,2.067.133,1.066,0,1.066-.067,2.066-.067s1,.067,2.067.067c1,0,1-.133,2.066-.133,1,0,1,.2,2.066.2,1,0,1-.2,2.066-.2h2c1.067,0,1.067.066,2.067.066h2.066c1,0,1,.067,2.066.067h4.132c1,0,1-.067,2-.067,1.067,0,1.067-.066,2.067-.066,1.066,0,1.066.133,2.066.133s1-.133,2.066-.133c1,0,1,.2,2.066.2,1,0,1-.133,2-.133,1.067,0,1.067-.066,2.067-.066,1.066,0,1.066.2,2.066.2a2.184,2.184,0,0,1,1.733.533,2.438,2.438,0,0,1,.6,1.666" transform="translate(-658.348 -0.147)" fill="#f0eeed"/>
    <path id="Path_36" data-name="Path 36" d="M1186.784,17.618a8.809,8.809,0,1,0-8.81-8.809,8.809,8.809,0,0,0,8.81,8.809M1181.578,3.6a7.3,7.3,0,0,1,11.807,2.005h-1.467l-2.058,4.9-2-4.9h-7.678a7.381,7.381,0,0,1,1.4-2.005m-1.935,3.49h1.647v5.382h1.84V7.093h2.278v5.382h1.68V7.92l1.87,4.555h1.8l1.886-4.537v4.537h.483a7.326,7.326,0,0,1-13.489-5.382" transform="translate(-753.166 0.001)" fill="#f0eeed"/>
  </g>
</svg>
