<svg id="Group_113" data-name="Group 113" xmlns="http://www.w3.org/2000/svg" xmlns:xlink="http://www.w3.org/1999/xlink" width="206.24" height="168.281" viewBox="0 0 206.24 168.281">
  <defs>
    <clipPath id="clip-path">
      <rect id="Rectangle_99" data-name="Rectangle 99" width="206.24" height="168.281" fill="none"/>
    </clipPath>
  </defs>
  <g id="Group_112" data-name="Group 112" clip-path="url(#clip-path)">
    <path id="Path_236" data-name="Path 236" d="M194.419,37.906C173.593,4.832,135.909,1.1,129.068.426A87.092,87.092,0,0,0,86.782,6.673,82.546,82.546,0,0,0,53.961,32.695c0-5.336-.908-27.358-.908-32.695-1.339,2.318-7.934,17.629-20.169,20.5a30.176,30.176,0,0,1-13.073,0C7.28,17.756,1.993,3.8,0,0V74.395l191.612-.653c-2.7,53.23-16.691,62.428-29.388,68.438-10.541,4.989-28.214,5.756-30.273,14.9-.792,3.516.741,8.208,3.844,10.091,11.737,7.123,54.6-20.668,66.793-61.507,1.99-6.666,10.47-38.152-8.169-67.754M14.966,40.576A4.573,4.573,0,1,1,19.54,36a4.573,4.573,0,0,1-4.574,4.574m23.884,0A4.573,4.573,0,1,1,43.424,36a4.574,4.574,0,0,1-4.574,4.574" fill="#243376"/>
    <path id="Path_237" data-name="Path 237" d="M16.9,36a1.934,1.934,0,1,1-1.934-1.934A1.934,1.934,0,0,1,16.9,36" fill="#243376"/>
    <path id="Path_238" data-name="Path 238" d="M40.784,36a1.934,1.934,0,1,1-1.934-1.934A1.934,1.934,0,0,1,40.784,36" fill="#243376"/>
  </g>
</svg>
